<svg width="124" height="115" viewBox="0 0 124 115" fill="none" xmlns="http://www.w3.org/2000/svg">
<path d="M99.962 49.7098V100.323L92.6072 103.806V47.8711L99.962 49.7098Z" fill="#CC9D69"/>
<path d="M20.1723 16.9848L112.229 38.7199C114.115 39.1651 115.599 40.6979 115.845 42.6199C115.995 43.7981 115.905 45.3425 115.349 47.3538C113.462 54.1764 107.075 52.3377 105.091 52.1925C103.328 52.0635 31.6417 35.4603 15.7188 31.769C13.3166 31.2121 11.4224 29.373 10.7969 26.9877C10.2131 24.7611 10.1538 21.9682 12.1428 19.5426C14.0604 17.2041 17.2291 16.2899 20.1723 16.9848Z" fill="#834206"/>
<path d="M112.229 38.7204L20.1724 16.9853C17.5297 16.3613 14.7134 17.0447 12.7761 18.8814L115.89 44.0115C115.906 43.5063 115.897 43.0319 115.845 42.6204C115.599 40.6984 114.115 39.1656 112.229 38.7204Z" fill="#BD630F"/>
<path d="M10.4706 24.9707C10.5169 25.6732 10.6312 26.3541 10.7971 26.9866C11.4225 29.3719 13.3167 31.211 15.719 31.7679C31.6419 35.4592 103.328 52.0624 105.091 52.1914C106.772 52.3144 111.607 53.6335 114.194 49.886L10.4706 24.9707Z" fill="#4D1E00"/>
<path d="M115.349 47.3544C115.905 45.3432 115.995 43.7987 115.845 42.6205C115.631 40.9451 114.475 39.5667 112.933 38.9453C108.529 39.7121 106.426 45.3686 106.478 48.3544C106.508 50.0437 107.206 51.461 107.958 52.5086C110.618 52.6432 114.05 52.0516 115.349 47.3544Z" fill="#622B00"/>
<path d="M45.7352 104.877C45.7352 107.264 41.3483 109.199 35.9368 109.199C30.5253 109.199 26.1384 107.264 26.1384 104.877V9.30273H45.7352V104.877Z" fill="#80400A"/>
<path d="M34.9056 109.175C35.2447 109.191 35.5884 109.199 35.9368 109.199C41.3483 109.199 45.7352 107.264 45.7352 104.877V9.30273H34.9055L34.9056 109.175Z" fill="#502501"/>
<path d="M45.7352 44.5396V22.0566L33.333 28.2661L26.1385 24.7958V40.2673C27.7268 38.7733 31.3734 35.3955 31.7832 35.4903C32.2853 35.6064 38.1343 45.4179 45.7352 44.5396Z" fill="#300100"/>
<path d="M26.1385 12.4401C27.8989 14.0474 31.6187 15.159 35.9368 15.159C40.2549 15.159 43.9748 14.0473 45.7352 12.44V9.30273H26.1385V12.4401Z" fill="#A85B22"/>
<path d="M35.9368 13.6245C41.3483 13.6245 45.7352 11.6894 45.7352 9.30247C45.7352 6.91549 41.3483 4.98047 35.9368 4.98047C30.5253 4.98047 26.1384 6.91549 26.1384 9.30247C26.1384 11.6894 30.5253 13.6245 35.9368 13.6245Z" fill="#994E0D"/>
<path d="M25.9626 16.8731C25.9626 16.8731 23.0549 18.2188 23.0964 20.9732C23.1379 23.7276 33.233 35.3382 38.7403 40.0084C44.2476 44.6786 43.1362 44.2659 44.691 43.4669C46.2458 42.668 46.7196 41.3558 46.0335 40.2021C45.3474 39.0484 28.0273 22.583 27.2401 21.1641C26.4529 19.7452 26.265 19.6832 26.265 19.6832L25.9626 16.8731Z" fill="#E39013"/>
<path d="M28.3688 25.1872C27.985 24.5161 27.9737 23.9302 27.5519 23.5753C27.1302 23.2204 26.7471 23.6185 26.0818 23.767C25.4165 23.9155 26.6418 23.0016 26.8721 22.5253C27.1024 22.049 25.3519 19.2266 24.4808 19.8623C23.8609 20.3147 23.5943 21.5592 23.4928 22.255C24.3889 24.1557 26.7198 27.263 29.4508 30.4585C29.8289 30.2104 30.4706 29.7194 30.6637 29.1233C30.9419 28.2648 30.5872 26.4175 29.81 25.8715C29.0328 25.3255 28.7526 25.8583 28.3688 25.1872Z" fill="#FEC94C"/>
<path d="M25.8915 23.7518C25.8264 23.6003 26.6833 22.916 26.8721 22.5253C27.1023 22.0491 25.3519 19.2266 24.4808 19.8623C23.8609 20.3147 23.5943 21.5592 23.4928 22.255C23.7696 22.842 24.1962 23.5542 24.7162 24.3385C25.0433 24.1757 25.4552 23.9701 25.8915 23.7518Z" fill="#F9B73F"/>
<path d="M36.0382 31.9468C35.0625 31.8292 33.4913 33.6663 32.9396 34.355C33.8824 35.3618 34.8207 36.3271 35.7196 37.2131C36.1129 37.1196 36.5323 36.855 36.7289 36.1841C37.1522 34.7393 37.2374 32.0913 36.0382 31.9468Z" fill="#FECF4D"/>
<path d="M39.7258 36.6861C39.0597 36.4126 38.1015 37.8585 37.5011 38.9107C37.9332 39.3066 38.3493 39.6765 38.7403 40.0081C38.8843 40.1302 39.0212 40.2469 39.1564 40.3622C40.8434 38.6959 40.7238 37.0958 39.7258 36.6861Z" fill="#FABE3F"/>
<path d="M44.691 43.4666C46.2457 42.6677 46.7196 41.3555 46.0334 40.2018C45.8379 39.873 44.2893 38.2987 42.1596 36.1855C42.0832 38.6651 40.1553 40.057 39.3511 40.5285C44.1617 44.643 43.1968 44.2344 44.691 43.4666Z" fill="#400000"/>
<path d="M26.1816 39.7206C26.1816 39.7206 25.4737 40.0932 23.996 39.3605C22.5183 38.6278 21.1398 37.4232 21.6241 35.6598C22.1084 33.8964 43.6172 19.0067 46.5479 19.255C49.4787 19.5034 49.28 22.8315 48.6839 23.3283C48.0878 23.8251 39.221 27.9728 35.0484 31.0029C30.8758 34.033 26.1816 37.6592 26.1816 37.6592V39.7206Z" fill="#D58612"/>
<path d="M46.5478 19.255C43.9044 19.031 26.1535 31.1184 22.3414 34.7856C22.3736 35.0319 22.4863 35.3991 22.8069 35.9485C23.5241 37.1779 23.3844 37.5226 24.3716 37.1127C25.3589 36.7029 26.9329 35.045 26.9236 34.4303C26.9175 34.0238 26.5975 33.403 26.3797 33.0253C26.6162 33.3185 27.1065 33.7131 28.0692 33.7876C29.6339 33.9087 29.8481 32.6141 29.6339 31.8317C29.4197 31.0494 29.0751 30.4998 29.6246 31.1425C30.1741 31.7851 30.1183 31.8876 31.2266 31.6175C32.335 31.3474 33.8904 28.9165 34.1232 28.5905C34.356 28.2645 35.3061 29.4008 36.2747 28.4508C37.2433 27.5008 36.7032 24.0919 37.1595 24.8929C37.6158 25.6939 37.1409 27.687 38.1188 27.3052C39.0968 26.9233 41.2824 25.7374 41.6798 24.9053C42.0772 24.0733 41.8661 24.7439 43.1948 24.1354C44.1295 23.7074 47.1348 21.9189 48.839 20.8935C48.5331 20.085 47.8509 19.3654 46.5478 19.255Z" fill="#FEC947"/>
<path d="M45.323 22.9734C46.5061 22.291 47.879 21.4713 48.8391 20.8936C48.5332 20.0851 47.851 19.3654 46.5479 19.255C46.1972 19.2253 45.5746 19.4174 44.7599 19.7727C45.3151 20.3829 45.821 21.4158 45.323 22.9734Z" fill="#F8AA2C"/>
<path d="M45.6053 22.9902C43.4237 24.662 40.3203 27.7041 40.3203 31.5156V93.3866L67.8006 115L96.7038 103V44.935C96.7038 42.0086 99.0579 37.5222 103.935 36.7621L45.6053 22.9902Z" fill="#F4D5AF"/>
<path d="M45.6053 22.9902C43.7541 24.4087 41.2464 26.8165 40.5271 29.8412L96.704 44.9309C96.7062 42.0044 99.0602 37.5218 103.935 36.7622L45.6053 22.9902Z" fill="#F2CEA3"/>
<path d="M51.3186 24.3398C49.5998 25.7622 47.3167 28.1511 47.3167 30.8066V89.7744L68.0909 106.742L90.3489 98.0324V43.9628C90.3489 41.1446 93.2676 36.6842 97.3104 35.1988L51.3186 24.3398Z" fill="#F9E0C3"/>
<path d="M47.3167 30.8066V31.6656L90.4128 43.2416C90.8382 40.4353 93.5966 36.5633 97.3104 35.1988L51.3186 24.3398C49.5998 25.7622 47.3167 28.1511 47.3167 30.8066Z" fill="#FCE8D1"/>
</svg>
